Coordinates
version=1
nRows=15
nColumns=42
inDegrees=yes

Units are S.I. units (second, meters, Newtons, ...)
If the header above contains a line with 'inDegrees', this indicates whether rotational values are in degrees (yes) or radians (no).

endheader
time	pelvis_tilt	pelvis_list	pelvis_rotation	pelvis_tx	pelvis_ty	pelvis_tz	hip_flexion_r	hip_adduction_r	hip_rotation_r	knee_angle_r	knee_adduction_r	knee_angle_r_beta	ankle_angle_r	subtalar_angle_r	mtp_angle_r	hip_flexion_l	hip_adduction_l	hip_rotation_l	knee_angle_l	knee_adduction_l	knee_angle_l_beta	ankle_angle_l	subtalar_angle_l	mtp_angle_l	lumbar_extension	lumbar_bending	lumbar_rotation	arm_flex_r	arm_add_r	arm_rot_r	elbow_flex_r	pro_sup_r	wrist_flex_r	wrist_dev_r	arm_flex_l	arm_add_l	arm_rot_l	elbow_flex_l	pro_sup_l	wrist_flex_l	wrist_dev_l
      0.55000000	      7.22576426	      0.75484188	      0.82287752	     -0.60809801	      1.00622307	     -0.26612855	     18.55612917	     -6.10207027	    -10.51110237	     17.78573952	      8.42579383	      0.31041971	      1.43238437	     -5.99382577	     -7.83545466	    -19.82402657	     -3.56331227	      2.04427313	      6.16806394	     12.74068904	      0.10765302	     13.92270415	      2.04974222	     -7.83545466	    -14.65787521	     -1.95496431	     -3.30277455	    -14.13971338	     -8.20495482	     -6.87964557	     19.22815537	     90.00000001	      0.00000000	      0.00000000	     18.67170598	    -21.64871563	      3.98429915	     40.38533583	     90.00000001	      0.00000000	      0.00000000
      0.56000000	      7.20904426	      0.74544964	      1.02414242	     -0.59403840	      1.00359327	     -0.26539401	     18.23616123	     -6.03763360	    -11.36392858	     14.37492338	      8.76113083	      0.25088974	      1.47404529	     -4.20091426	     -7.82125243	    -20.61739984	     -3.74735403	      1.97069726	      6.34296965	     12.80597131	      0.11070570	     14.35559254	      2.56796520	     -7.82125243	    -14.63138259	     -1.86135523	     -3.45273629	    -14.56206188	     -7.97521991	     -8.68156334	     19.58352542	     90.00000001	      0.00000000	      0.00000000	     19.29619020	    -22.08920290	      4.54468978	     41.32779858	     90.00000001	      0.00000000	      0.00000000
      0.57000000	      7.00494106	      0.90489000	      1.20156615	     -0.57996973	      1.00072640	     -0.26479244	     18.22915986	     -6.22903765	    -12.03180348	     11.53004062	      9.25127330	      0.20123717	      1.56477298	     -2.53413278	     -7.80722316	    -21.13993936	     -3.71135587	      1.98912962	      6.65236334	     12.81608813	      0.11610564	     14.75437941	      2.96285107	     -7.80722316	    -14.40609296	     -1.94254631	     -3.64926993	    -14.99350204	     -7.78047870	    -10.33041390	     20.14323881	     90.00000001	      0.00000000	      0.00000000	     19.80661477	    -22.46358442	      4.87310253	     42.19759990	     90.00000001	      0.00000000	      0.00000000
      0.58000000	      6.79697893	      1.10026584	      1.41372885	     -0.56585395	      0.99784365	     -0.26439488	     18.30997798	     -6.52212291	    -12.52439688	      9.27065391	      9.80434519	      0.16180343	      1.74911949	     -1.07863360	     -7.79712240	    -21.60712020	     -3.63255310	      2.10113909	      7.05329870	     12.78745468	      0.12310329	     15.09114533	      3.23151722	     -7.79712240	    -14.18289332	     -2.02825446	     -3.86724544	    -15.48505404	     -7.66393451	    -11.59651510	     20.86617996	     90.00000001	      0.00000000	      0.00000000	     20.27140170	    -22.76320251	      5.08127934	     43.09350238	     90.00000001	      0.00000000	      0.00000000
      0.59000000	      6.63640045	      1.15461368	      1.65869670	     -0.55156780	      0.99513031	     -0.26367110	     18.40284268	     -6.62734999	    -13.06051074	      7.58921043	     10.23494900	      0.13245671	      1.84308954	      0.34495256	     -7.78382663	    -22.11486800	     -3.77208574	      2.28060095	      7.46558515	     12.80868379	      0.13029904	     15.32937576	      3.52082574	     -7.78382663	    -14.00428063	     -1.98525876	     -4.10900912	    -15.86687585	     -7.45779124	    -13.02692976	     21.41268754	     90.00000001	      0.00000000	      0.00000000	     20.60095336	    -23.09948006	      5.25147020	     43.92259333	     90.00000001	      0.00000000	      0.00000000
      0.60000000	      6.46038442	      1.23330186	      1.90532677	     -0.53718953	      0.99249608	     -0.26315949	     18.57996801	     -6.77025330	    -13.29936040	      6.48612762	     10.59818599	      0.11320428	      2.01165859	      1.36046586	     -7.77421620	    -22.54135372	     -3.85838992	      2.56011715	      7.99739313	     12.77995444	      0.13958084	     15.49910119	      3.65166855	     -7.77421620	    -13.80687456	     -1.92810809	     -4.37685188	    -16.29914143	     -7.33576750	    -13.94448149	     21.90540578	     90.00000001	      0.00000000	      0.00000000	     20.80502209	    -23.34900216	      5.25602073	     44.73997655	     90.00000001	      0.00000000	      0.00000000
      0.61000000	      6.26056622	      1.28373858	      1.91966022	     -0.52286642	      0.98991657	     -0.26238524	     19.12714795	     -6.77369589	    -13.27922750	      6.45771823	     10.72503927	      0.11270845	      2.00869728	      1.49678686	     -7.77281358	    -22.99063162	     -3.89311922	      2.75551649	      8.44519400	     12.73486297	      0.14739644	     15.45466542	      3.71060984	     -7.77281358	    -13.56650339	     -1.87222926	     -4.44792480	    -16.65116067	     -7.34512974	    -14.01734554	     21.93184224	     90.00000001	      0.00000000	      0.00000000	     21.09201839	    -23.50523065	      5.15334153	     45.00943106	     90.00000001	      0.00000000	      0.00000000
      0.62000000	      6.02554584	      1.23112884	      2.36057599	     -0.50815285	      0.98755316	     -0.26213650	     19.21551155	     -6.77510545	    -12.94951434	      5.93156595	     10.87650965	      0.10352536	      2.13112820	      2.17386689	     -7.76914048	    -23.17506888	     -4.18400397	      3.41979160	      9.27489811	     12.69609122	      0.16187751	     15.50611965	      3.69617533	     -7.76914048	    -13.29844826	     -1.59986577	     -4.84667655	    -17.20310758	     -7.20806631	    -14.62708896	     22.35737764	     90.00000001	      0.00000000	      0.00000000	     20.90136859	    -23.63318467	      4.92720992	     46.14563978	     90.00000001	      0.00000000	      0.00000000
      0.63000000	      5.91673379	      1.13521363	      2.53822405	     -0.49323846	      0.98546423	     -0.26161355	     19.44319382	     -6.63928073	    -12.49767220	      6.35058961	     10.88016875	      0.11083870	      2.06939694	      2.27860345	     -7.76753683	    -23.62274604	     -4.40752735	      3.91122510	      9.88940911	     12.57575319	      0.17260275	     15.36691415	      3.78575453	     -7.76753683	    -13.11212375	     -1.30679018	     -4.97302807	    -17.60858058	     -7.16262207	    -14.68991835	     22.16127334	     90.00000001	      0.00000000	      0.00000000	     20.91506135	    -23.64012555	      4.84644987	     46.46882813	     90.00000001	      0.00000000	      0.00000000
      0.64000000	      5.92963343	      0.72517121	      2.95912623	     -0.47818775	      0.98372731	     -0.26082842	     19.53266190	     -6.13962508	    -12.43373665	      7.21409197	     10.65232770	      0.12590966	      1.91653410	      1.82899447	     -7.76315197	    -24.00601152	     -5.19462663	      4.38559451	     10.84557179	     12.69039371	      0.18929094	     15.09947244	      3.60593849	     -7.76315197	    -13.08246726	     -0.66431635	     -5.43001591	    -17.67152442	     -7.10055461	    -14.85606148	     21.39492123	     90.00000001	      0.00000000	      0.00000000	     20.41801866	    -23.83642593	      4.38449257	     47.57070356	     90.00000001	      0.00000000	      0.00000000
      0.65000000	      5.85831054	      0.30795566	      3.29245731	     -0.46281071	      0.98216570	     -0.26016246	     19.65716042	     -5.64797740	    -12.11763528	      8.22913632	     10.48416613	      0.14362552	      1.35114563	      1.25458114	     -7.75807518	    -24.33952033	     -5.90019954	      4.92589363	     11.71256922	     12.72682383	      0.20442290	     14.73713138	      3.55064934	     -7.75807518	    -12.90030650	      0.00840392	     -5.70371984	    -17.81725649	     -7.08546823	    -14.95618535	     20.59705647	     90.00000001	      0.00000000	      0.00000000	     20.01371808	    -23.80571074	      3.99306474	     48.12524672	     90.00000001	      0.00000000	      0.00000000
      0.66000000	      5.87246894	     -0.09403790	      3.53241201	     -0.44733851	      0.98095170	     -0.25934016	     19.78180381	     -5.16610523	    -11.83548343	      9.64827034	     10.32029745	      0.16839408	      0.58285046	      0.48648269	     -7.75445155	    -24.69621661	     -6.55434031	      5.32317861	     12.72233706	     12.76053244	      0.22204667	     14.10911740	      3.40139396	     -7.75445155	    -12.81199726	      0.65460911	     -5.90119855	    -17.93263442	     -7.06842697	    -14.84291040	     19.83947149	     90.00000001	      0.00000000	      0.00000000	     19.49867762	    -23.74424026	      3.57292129	     48.61438090	     90.00000001	      0.00000000	      0.00000000
      0.67000000	      5.76868740	     -0.85920751	      3.83528207	     -0.43162061	      0.98008786	     -0.25837984	     19.69390136	     -4.24788403	    -10.73478093	     10.36197355	     10.27775052	      0.18085056	     -1.46152433	     -2.58440534	     -7.73263301	    -24.82422837	     -7.64255722	      5.57768666	     13.90182981	     12.88698251	      0.24263270	     13.43035782	      3.19086933	     -7.73263301	    -12.54253321	      1.70059842	     -6.12982456	    -17.82525927	     -7.08202146	    -15.18115142	     18.79976979	     90.00000001	      0.00000000	      0.00000000	     18.78687723	    -23.54217861	      2.86088495	     49.01270720	     90.00000001	      0.00000000	      0.00000000
      0.68000000	      5.84250059	     -1.30264031	      3.96356945	     -0.41583707	      0.97971883	     -0.25754970	     19.75303963	     -3.78958637	    -10.67465999	     12.05903162	     10.21608359	      0.21046981	     -2.55727882	     -3.16112059	     -7.72953531	    -25.11494519	     -8.27050419	      5.75171272	     15.13960105	     12.92624047	      0.26423589	     12.24178367	      2.89269341	     -7.72953531	    -12.50552851	      2.40335958	     -6.18858640	    -17.85249570	     -7.17421497	    -14.93524399	     18.23024643	     90.00000001	      0.00000000	      0.00000000	     18.09586824	    -23.35134663	      2.45900451	     49.33419858	     90.00000001	      0.00000000	      0.00000000
      0.69000000	      5.83261558	     -1.92218248	      4.10936265	     -0.39986133	      0.97974282	     -0.25654148	     19.84935346	     -3.15714915	    -10.69123671	     13.71826520	     10.13479699	      0.23942890	     -3.78390820	     -3.94362648	     -7.72612660	    -25.18229445	     -9.07965990	      5.79077713	     16.59786390	     12.96057772	      0.28968737	     10.79058720	      2.35469539	     -7.72612660	    -12.34471450	      3.27460636	     -6.26484465	    -17.76733508	     -7.30967997	    -14.72630465	     17.69428221	     90.00000001	      0.00000000	      0.00000000	     17.24664355	    -23.09609405	      1.86842468	     49.56453742	     90.00000001	      0.00000000	      0.00000000
